<svg width="19" height="15" viewBox="0 0 19 15" fill="none" xmlns="http://www.w3.org/2000/svg">
<path d="M18.6425 1.8768C17.9872 2.15989 17.2821 2.3502 16.5425 2.43649C17.2982 1.99677 17.8775 1.30207 18.1503 0.472461C17.4435 0.880261 16.6615 1.17561 15.8281 1.33399C15.1615 0.644953 14.2118 0.2146 13.16 0.2146C11.1425 0.2146 9.50567 1.80183 9.50567 3.76112C9.50567 4.03958 9.53759 4.31052 9.60031 4.57024C6.56281 4.42215 3.86845 3.00927 2.06661 0.863373C1.75159 1.38744 1.57158 1.99584 1.57158 2.64647C1.57158 3.87646 2.21654 4.96393 3.19722 5.5987C2.59726 5.57996 2.03468 5.42147 1.54069 5.15434V5.19934C1.54069 6.91869 2.80065 8.35217 4.47314 8.67841C4.16657 8.75905 3.84404 8.80312 3.51028 8.80312C3.27497 8.80312 3.04625 8.7816 2.8231 8.73938C3.28805 10.1494 4.63812 11.175 6.23843 11.2032C4.98691 12.1556 3.41091 12.7219 1.69814 12.7219C1.4028 12.7219 1.11219 12.705 0.825287 12.6723C2.44434 13.6791 4.3644 14.2669 6.42966 14.2669C13.1534 14.2669 16.8303 8.85945 16.8303 4.17191L16.82 3.71252C17.5324 3.21368 18.1522 2.58932 18.6425 1.8768Z" fill="white"/>
</svg>
