<svg width="31" height="31" viewBox="0 0 31 31" fill="none" xmlns="http://www.w3.org/2000/svg">
<path d="M15.3965 0.771484C7.11348 0.771484 0.396484 7.48848 0.396484 15.7715C0.396484 24.0545 7.11348 30.7715 15.3965 30.7715C23.6795 30.7715 30.3965 24.0545 30.3965 15.7715C30.3965 7.48848 23.6795 0.771484 15.3965 0.771484ZM23.9578 19.3226C23.9162 20.2395 23.7704 20.8655 23.5575 21.4134C23.11 22.5704 22.1954 23.485 21.0384 23.9325C20.4907 24.1454 19.8645 24.2909 18.9478 24.3328C18.0293 24.3747 17.7359 24.3848 15.3967 24.3848C13.0573 24.3848 12.7641 24.3747 11.8454 24.3328C10.9287 24.2909 10.3025 24.1454 9.75478 23.9325C9.17982 23.7162 8.65935 23.3772 8.22905 22.9389C7.79097 22.5089 7.452 21.9881 7.2357 21.4134C7.02284 20.8657 6.87704 20.2395 6.83539 19.3228C6.79305 18.4041 6.7832 18.1107 6.7832 15.7715C6.7832 13.4323 6.79305 13.1389 6.83516 12.2204C6.87682 11.3035 7.02238 10.6775 7.23524 10.1295C7.45154 9.55482 7.79074 9.03412 8.22905 8.60405C8.65912 8.16574 9.17982 7.82677 9.75455 7.61047C10.3025 7.39761 10.9285 7.25204 11.8454 7.21016C12.7639 7.16827 13.0573 7.1582 15.3965 7.1582C17.7357 7.1582 18.0291 7.16827 18.9476 7.21039C19.8645 7.25204 20.4905 7.39761 21.0384 7.61024C21.6131 7.82654 22.1339 8.16574 22.5641 8.60405C23.0022 9.03435 23.3414 9.55482 23.5575 10.1295C23.7706 10.6775 23.9162 11.3035 23.958 12.2204C23.9999 13.1389 24.0098 13.4323 24.0098 15.7715C24.0098 18.1107 23.9999 18.4041 23.9578 19.3226Z" fill="#E743AF"/>
</svg>
