<svg width="15" height="15" viewBox="0 0 15 15" fill="none" xmlns="http://www.w3.org/2000/svg">
<path d="M14.111 2.69164C13.9729 2.31764 13.7528 1.97913 13.4667 1.70126C13.1888 1.41516 12.8505 1.19498 12.4763 1.05696C12.1728 0.939087 11.7169 0.798782 10.8771 0.760559C9.96866 0.719131 9.69629 0.710205 7.39648 0.710205C5.09645 0.710205 4.82408 0.718903 3.91588 0.76033C3.07611 0.798782 2.61995 0.939087 2.31668 1.05696C1.94246 1.19498 1.60394 1.41516 1.32631 1.70126C1.04021 1.97913 0.820023 2.31741 0.681778 2.69164C0.563904 2.99513 0.423599 3.45129 0.385376 4.29106C0.343948 5.19926 0.335022 5.47163 0.335022 7.77167C0.335022 10.0715 0.343948 10.3438 0.385376 11.2523C0.423599 12.092 0.563904 12.548 0.681778 12.8515C0.820023 13.2257 1.03998 13.564 1.32608 13.8418C1.60394 14.1279 1.94223 14.3481 2.31645 14.4861C2.61995 14.6042 3.07611 14.7446 3.91588 14.7828C4.82408 14.8242 5.09622 14.8329 7.39626 14.8329C9.69652 14.8329 9.96889 14.8242 10.8769 14.7828C11.7166 14.7446 12.1728 14.6042 12.4763 14.4861C13.2275 14.1964 13.8212 13.6027 14.111 12.8515C14.2288 12.548 14.3691 12.092 14.4076 11.2523C14.449 10.3438 14.4577 10.0715 14.4577 7.77167C14.4577 5.47163 14.449 5.19926 14.4076 4.29106C14.3694 3.45129 14.2291 2.99513 14.111 2.69164ZM7.39648 12.1944C4.95363 12.1944 2.97334 10.2143 2.97334 7.77144C2.97334 5.32858 4.95363 3.34853 7.39648 3.34853C9.83911 3.34853 11.8194 5.32858 11.8194 7.77144C11.8194 10.2143 9.83911 12.1944 7.39648 12.1944ZM11.9943 4.20729C11.4234 4.20729 10.9606 3.74449 10.9606 3.17366C10.9606 2.60283 11.4234 2.14003 11.9943 2.14003C12.5651 2.14003 13.0279 2.60283 13.0279 3.17366C13.0277 3.74449 12.5651 4.20729 11.9943 4.20729Z" fill="#E743AF"/>
</svg>
