<svg width="31" height="31" viewBox="0 0 31 31" fill="none" xmlns="http://www.w3.org/2000/svg">
<path d="M15.5283 0.771484C7.24532 0.771484 0.52832 7.48848 0.52832 15.7715C0.52832 24.0545 7.24532 30.7715 15.5283 30.7715C23.8113 30.7715 30.5283 24.0545 30.5283 15.7715C30.5283 7.48848 23.8113 0.771484 15.5283 0.771484ZM11.1695 23.4473H7.51631V12.4566H11.1695V23.4473ZM9.34302 10.9558H9.31921C8.09332 10.9558 7.30048 10.1119 7.30048 9.05724C7.30048 7.97874 8.11758 7.1582 9.36728 7.1582C10.617 7.1582 11.386 7.97874 11.4098 9.05724C11.4098 10.1119 10.617 10.9558 9.34302 10.9558ZM24.3421 23.4473H20.6894V17.5675C20.6894 16.0899 20.1604 15.0821 18.8386 15.0821C17.8295 15.0821 17.2285 15.7619 16.9643 16.4181C16.8677 16.6529 16.8442 16.9811 16.8442 17.3096V23.4473H13.1912C13.1912 23.4473 13.239 13.4877 13.1912 12.4566H16.8442V14.0128C17.3296 13.2639 18.1982 12.1986 20.1364 12.1986C22.5399 12.1986 24.3421 13.7695 24.3421 17.1452V23.4473Z" fill="#196BFF"/>
</svg>
