<svg width="30" height="31" viewBox="0 0 30 31" fill="none" xmlns="http://www.w3.org/2000/svg">
<path d="M28.4391 18.7011C28.647 17.6984 28.7513 16.7217 28.7513 15.7714C28.7513 13.9094 28.3904 12.1288 27.6675 10.4295C26.9449 8.73037 25.9683 7.26566 24.7378 6.03511C23.5073 4.80456 22.0428 3.82802 20.3436 3.1052C18.644 2.38287 16.8639 2.02139 15.0017 2.02139C14.0512 2.02139 13.0745 2.12565 12.0719 2.33402C10.7177 1.29235 9.19424 0.771484 7.50152 0.771484C5.43131 0.771484 3.66382 1.50381 2.1989 2.96845C0.733841 4.43351 0.00158691 6.201 0.00158691 8.27128C0.00158691 9.964 0.522456 11.4875 1.56399 12.8416C1.35575 13.8442 1.2515 14.8209 1.2515 15.7714C1.2515 17.6332 1.6127 19.4137 2.33531 21.1132C3.05785 22.8123 4.03446 24.2771 5.26508 25.5079C6.49556 26.7383 7.96048 27.7145 9.65963 28.4374C11.3589 29.1601 13.1396 29.5214 15.0015 29.5214C15.9519 29.5214 16.9286 29.417 17.9318 29.2086C19.2856 30.2504 20.8089 30.7715 22.5018 30.7715C24.5718 30.7715 26.3398 30.0388 27.8039 28.5742C29.2689 27.1092 30.0012 25.3417 30.0012 23.2712C30.0008 21.5788 29.4802 20.0555 28.4391 18.7011ZM22.2667 21.6015C21.8373 22.3633 21.2609 22.9719 20.5384 23.4277C19.8156 23.8835 19.0181 24.2314 18.1458 24.4725C17.2735 24.7132 16.3622 24.834 15.4114 24.834C13.2112 24.834 11.3168 24.4074 9.72811 23.5544C8.13944 22.7012 7.3452 21.6763 7.3452 20.4781C7.3452 19.8924 7.5113 19.4046 7.84336 19.0136C8.17535 18.6229 8.66687 18.4279 9.31793 18.4279C9.69555 18.4279 10.047 18.532 10.3725 18.7401C10.6979 18.9485 10.9974 19.1995 11.2709 19.4925C11.5445 19.7857 11.8405 20.0783 12.1596 20.3714C12.4784 20.6645 12.9016 20.915 13.4289 21.1234C13.9564 21.3317 14.5521 21.4361 15.2163 21.4361C16.0626 21.4361 16.746 21.2704 17.2673 20.9384C17.7879 20.606 18.0483 20.186 18.0483 19.6785C18.0483 19.1573 17.8402 18.7669 17.4237 18.5065C17.1376 18.3236 16.4081 18.0893 15.2362 17.803L12.3843 17.0995C11.6031 16.9174 10.9325 16.706 10.3725 16.4653C9.81253 16.2242 9.29166 15.9088 8.80999 15.5179C8.32845 15.1274 7.96383 14.636 7.71639 14.0433C7.46902 13.451 7.34534 12.7575 7.34534 11.9633C7.34534 11.0126 7.5635 10.1763 7.99954 9.45346C8.43558 8.73072 9.01535 8.16422 9.73775 7.7541C10.4603 7.34392 11.2383 7.03799 12.0718 6.83618C12.905 6.63431 13.7644 6.5334 14.6498 6.5334C15.9001 6.5334 17.0844 6.68322 18.2044 6.98265C19.3242 7.28208 20.2487 7.72154 20.9776 8.30097C21.7067 8.8806 22.0712 9.52837 22.0712 10.2444C22.0712 10.8301 21.886 11.3316 21.5144 11.7482C21.1441 12.1647 20.6524 12.373 20.0402 12.373C19.7017 12.373 19.3894 12.2948 19.1029 12.1386C18.8165 11.9824 18.5563 11.7937 18.3214 11.5723C18.0871 11.3511 17.8393 11.1329 17.5791 10.9181C17.3187 10.7033 16.9671 10.5178 16.5249 10.3615C16.0816 10.2053 15.5807 10.1271 15.0208 10.1271C13.146 10.1271 12.2084 10.628 12.2084 11.6309C12.2084 11.8521 12.2573 12.0475 12.3548 12.2167C12.4524 12.386 12.5601 12.5227 12.677 12.6269C12.7939 12.7312 12.9893 12.8353 13.2629 12.9395C13.5365 13.0439 13.7643 13.1189 13.9466 13.1642C14.1288 13.2098 14.4155 13.2781 14.8059 13.3691L16.8373 13.8378C17.4752 13.9812 18.0446 14.131 18.5462 14.2871C19.0477 14.4436 19.5847 14.6648 20.1576 14.9513C20.7305 15.2378 21.2057 15.5566 21.5831 15.9082C21.9609 16.2601 22.2766 16.7056 22.5308 17.246C22.7849 17.7865 22.9114 18.3823 22.9114 19.0331C22.9114 19.9836 22.6969 20.8399 22.2667 21.6015Z" fill="#2BD8F0"/>
</svg>
